<svg xmlns="http://www.w3.org/2000/svg" width="33.75" height="33.75"><path d="M29.861 15.072a1.13 1.13 0 00-1.687-.821l-7.326 4.254a.833.833 0 00-.125.085l-1.133.652a1.123 1.123 0 00-.563.979 1.13 1.13 0 00.562.979l6.383 3.707a1.128 1.128 0 001.478-.311 13.149 13.149 0 002.535-7.725c.001-.593-.04-1.198-.124-1.799zM8.975 8.405l7.271 4.181c.038.021.075.041.114.058l1.189.688a1.136 1.136 0 001.128 0c.35-.202.562-.575.562-.979V4.964c0-.578-.436-1.063-1.01-1.125-3.338-.357-6.729.629-9.393 2.693-.3.231-.461.597-.436.973.036.374.249.713.575.9zM20.85 16.65a1.118 1.118 0 001.128-.002l6.385-3.708c.502-.291.701-.914.467-1.441a13.057 13.057 0 00-6.988-6.755 1.133 1.133 0 00-1.563 1.046v9.879c.004.407.219.78.571.981zM24.73 25.384l-8.529-4.955a1.13 1.13 0 00-1.699.977v7.381c0 .578.438 1.062 1.015 1.125.455.048.914.072 1.358.072 2.851 0 5.685-.968 7.978-2.726.301-.229.467-.594.438-.972a1.123 1.123 0 00-.561-.902zM14.114 12.553L7.739 8.888a1.13 1.13 0 00-1.479.317 13.189 13.189 0 00-2.494 7.67c0 .56.035 1.123.105 1.674.049.375.278.7.614.869a1.132 1.132 0 001.068-.029l8.559-4.871c.353-.201.57-.575.57-.979 0-.409-.217-.784-.568-.986zM12.905 17.04a1.129 1.129 0 00-1.127-.005L5.34 20.699a1.134 1.134 0 00-.479 1.438 13.04 13.04 0 007.048 6.87 1.137 1.137 0 001.061-.108c.311-.209.5-.562.5-.938V18.02a1.139 1.139 0 00-.565-.98z"/><path d="M16.875 0C7.569 0 0 7.569 0 16.875 0 26.18 7.569 33.75 16.875 33.75c9.307 0 16.875-7.57 16.875-16.875C33.75 7.569 26.18 0 16.875 0zm0 31.486c-8.058 0-14.611-6.556-14.611-14.611 0-8.058 6.555-14.612 14.611-14.612 8.059 0 14.611 6.555 14.611 14.612.002 8.057-6.552 14.611-14.611 14.611z"/></svg>