<svg xmlns="http://www.w3.org/2000/svg" viewBox="0 0 480 480"><path d="M440 116v-16a8 8 0 00-8-8h-48a8 8 0 00-8 8v16h-19.352L336.16 80.16A40.08 40.08 0 00301.432 60H178.568a40.08 40.08 0 00-34.728 20.16L123.352 116H120V92a8 8 0 00-8-8H48a8 8 0 00-8 8v24c-22.08.026-39.974 17.92-40 40v224c.026 22.08 17.92 39.974 40 40h400c22.08-.026 39.974-17.92 40-40V156c-.026-22.08-17.92-39.974-40-40zm-48-8h32v8h-32v-8zm-336-8h48v16H56v-16zm408 280c0 13.255-10.745 24-24 24H40c-13.255 0-24-10.745-24-24V156c0-13.255 10.745-24 24-24h88a8 8 0 006.944-4l22.784-39.872A24.07 24.07 0 01178.568 76h122.864a24.072 24.072 0 0120.8 12.096L345.056 128a8 8 0 006.944 4h88c13.255 0 24 10.745 24 24v224z"/><path d="M347.532 284.504l-.02-.008a8 8 0 00-10.328 4.616c-20.569 53.628-80.718 80.428-134.346 59.859-36.074-13.836-61.504-46.53-66.038-84.899l19.528 19.528a8 8 0 0011.312.196 8 8 0 000-11.508l-33.944-33.944a8 8 0 00-11.312 0L88.4 272.288a8 8 0 00.196 11.312 8 8 0 0011.116 0l20.8-20.8c5.983 66.004 64.339 114.66 130.343 108.677 45.602-4.133 84.876-33.857 101.241-76.622a8 8 0 00-4.564-10.351zM380.484 220.204c-.067.064-.132.13-.196.196l-20.8 20.8c-5.97-66.005-64.317-114.672-130.322-108.702-45.794 4.142-85.195 34.088-101.446 77.102a8 8 0 0014.968 5.656c20.341-53.715 80.375-80.771 134.09-60.431 36.31 13.75 61.938 46.581 66.462 85.143L323.712 220.4a8 8 0 00-11.312-.196 8 8 0 000 11.508l33.944 33.944a8 8 0 0011.312 0l33.944-33.944a8 8 0 00.196-11.312 8 8 0 00-11.312-.196z"/></svg>