<svg xmlns="http://www.w3.org/2000/svg" height="512" width="512"><rect width="100%" height="100%" fill="none"/><g class="currentLayer"><path d="M256 0C114.836 0 0 114.836 0 256s114.836 256 256 256 256-114.836 256-256S397.164 0 256 0zm0 405.332c-11.777 0-21.332-9.555-21.332-21.332s9.555-21.332 21.332-21.332 21.332 9.555 21.332 21.332-9.555 21.332-21.332 21.332zm21.332-106.664c0 11.773-9.555 21.332-21.332 21.332s-21.332-9.559-21.332-21.332V128c0-11.777 9.555-21.332 21.332-21.332s21.332 9.555 21.332 21.332zm0 0" class="selected" fill="#fff"/></g></svg>